<?xml version="1.0" encoding="utf-8"?>
<!-- Generator: Adobe Illustrator 28.0.0, SVG Export Plug-In . SVG Version: 6.00 Build 0)  -->
<svg version="1.1" id="Layer_1" xmlns="http://www.w3.org/2000/svg" xmlns:xlink="http://www.w3.org/1999/xlink" x="0px" y="0px"
	 viewBox="0 0 1366 768" style="enable-background:new 0 0 1366 768;" xml:space="preserve">
<style type="text/css">
	.st0{fill:url(#SVGID_1_);stroke:#000000;stroke-width:6;stroke-miterlimit:10;}
	.st1{display:none;}
	.st2{font-family:'MyriadPro-Regular';}
	.st3{font-size:350px;}
	.st4{fill:url(#SVGID_00000167398636551698295210000008285503373494041988_);stroke:#1F92CC;stroke-width:6;stroke-miterlimit:10;}
	.st5{fill:#FFFFFF;stroke:#000000;stroke-width:6;stroke-miterlimit:10;}
</style>
<radialGradient id="SVGID_1_" cx="683" cy="384" r="266.7366" gradientUnits="userSpaceOnUse">
	<stop  offset="0.6575" style="stop-color:#1F92CC"/>
	<stop  offset="1" style="stop-color:#000000"/>
</radialGradient>
<polygon class="st0" points="436.05,241.42 436.05,526.58 683,669.15 929.95,526.58 929.95,241.42 683,98.85 "/>
<text transform="matrix(1 0 0 1 1088.4531 325.2261)" class="st1 st2 st3">V</text>
<text transform="matrix(1 0 0 1 908.7998 473)" class="st1 st2 st3">A</text>
<text transform="matrix(1 0 0 1 1038 661)" class="st1 st2 st3">N</text>
<radialGradient id="SVGID_00000163765555743426380250000011632838220575300224_" cx="683" cy="384" r="222.9648" gradientUnits="userSpaceOnUse">
	<stop  offset="0.443" style="stop-color:#1F92CC"/>
	<stop  offset="1" style="stop-color:#000000"/>
</radialGradient>
<polygon style="fill:url(#SVGID_00000163765555743426380250000011632838220575300224_);stroke:#1F92CC;stroke-width:6;stroke-miterlimit:10;" points="
	476.57,264.82 476.57,503.18 683,622.36 889.43,503.18 889.43,264.82 683,145.64 "/>
<g>
	<g>
		<path class="st5" d="M653.9,466.5h-76.34h-4.45c-4.11,0-7.27-0.77-9.5-2.3c-2.23-1.54-3.34-3.73-3.34-6.57
			c0-4.66,2.28-7.74,6.85-9.22c3.77-1.25,5.96-2.02,6.59-2.3c0.63-0.28,1.28-0.94,1.97-1.96c1.37-1.82,2.05-4.72,2.05-8.71V264.57
			c0-3.98-0.68-6.88-2.05-8.71c-0.68-1.02-1.34-1.68-1.97-1.96c-0.63-0.28-2.82-1.05-6.59-2.3c-4.57-1.48-6.85-4.55-6.85-9.22
			c0-2.84,1.11-5.04,3.34-6.57c2.23-1.54,5.39-2.3,9.5-2.3h4.45h76.34h4.45c4.11,0,7.27,0.77,9.5,2.3c2.23,1.54,3.34,3.73,3.34,6.57
			c0,4.67-2.28,7.74-6.85,9.22c-3.77,1.25-5.96,2.02-6.59,2.3c-0.63,0.29-1.28,0.94-1.97,1.96c-1.37,1.82-2.05,4.72-2.05,8.71
			v170.87c0,3.98,0.68,6.89,2.05,8.71c0.68,1.02,1.34,1.68,1.97,1.96c0.63,0.28,2.82,1.05,6.59,2.3c4.56,1.48,6.85,4.55,6.85,9.22
			c0,2.85-1.11,5.04-3.34,6.57c-2.23,1.54-5.39,2.3-9.5,2.3H653.9z"/>
	</g>
	<g>
		<path class="st5" d="M721.73,301.5v200.57c0,4.44,0.86,7.62,2.57,9.56c0.91,1.14,1.77,1.85,2.57,2.13c0.8,0.29,3.42,1,7.87,2.13
			c5.48,1.25,8.22,4.38,8.22,9.39c0,2.96-1.48,5.35-4.45,7.17c-2.17,1.37-5.76,2.05-10.78,2.05h-5.82h-76.34h-4.45
			c-4.11,0-7.27-0.77-9.5-2.3s-3.34-3.73-3.34-6.57c0-4.67,2.28-7.74,6.85-9.22c3.77-1.25,5.96-2.02,6.59-2.3
			c0.63-0.28,1.28-0.94,1.97-1.96c1.37-1.82,2.05-4.72,2.05-8.71V332.57c0-3.98-0.68-6.88-2.05-8.71c-0.68-1.02-1.34-1.68-1.97-1.96
			c-0.63-0.28-2.82-1.05-6.59-2.3c-4.57-1.48-6.85-4.55-6.85-9.22c0-2.84,1.11-5.04,3.34-6.57c2.23-1.54,5.39-2.3,9.5-2.3h4.45
			H721.73z M735.73,425.69v-19.66c6.67-3.16,11.55-6.58,14.66-10.25c3.11-3.67,5.39-8.67,6.86-15c0.9-4.29,2.09-7.26,3.56-8.9
			c1.47-1.64,3.56-2.46,6.27-2.46c3.62,0,6.1,1.41,7.46,4.24c0.79,1.47,1.19,4.8,1.19,10v64.58c0,5.31-0.59,8.98-1.78,11.02
			s-3.36,3.05-6.53,3.05c-2.6,0-4.63-0.79-6.1-2.37c-1.47-1.58-2.66-4.24-3.56-7.97c-2.03-7.8-4.8-13.78-8.31-17.97
			C745.95,429.82,741.38,427.05,735.73,425.69z M736.73,301.5h69v59.64c0,3.87-0.68,6.67-2.05,8.37c-1.37,1.71-3.6,2.56-6.68,2.56
			c-2.28,0-4.08-0.6-5.39-1.79c-1.31-1.2-2.43-3.22-3.34-6.07c-1.71-5.58-3.94-10.71-6.68-15.38c-2.74-4.67-5.82-8.66-9.25-11.96
			c-4.68-4.56-9.82-8.03-15.41-10.42c-5.59-2.39-12.33-4.04-20.2-4.96V301.5z"/>
	</g>
</g>
</svg>
