<?xml version="1.0" encoding="utf-8"?>
<!-- Generator: Adobe Illustrator 28.0.0, SVG Export Plug-In . SVG Version: 6.00 Build 0)  -->
<svg version="1.1" id="Layer_1" xmlns="http://www.w3.org/2000/svg" xmlns:xlink="http://www.w3.org/1999/xlink" x="0px" y="0px"
	 viewBox="0 0 1366 768" style="enable-background:new 0 0 1366 768;" xml:space="preserve">
<style type="text/css">
	.st0{display:none;}
	.st1{display:inline;fill:url(#SVGID_1_);stroke:#000000;stroke-width:6;stroke-miterlimit:10;}
	.st2{display:inline;}
	.st3{font-family:'ArialMT';}
	.st4{font-size:350px;}
	
		.st5{display:inline;fill:url(#SVGID_00000080200723302536625850000009207187419499184044_);stroke:#1F92CC;stroke-width:6;stroke-miterlimit:10;}
	.st6{fill:#FFFFFF;stroke:#000000;stroke-width:6;stroke-miterlimit:10;}
	.st7{fill:#FFFFFF;stroke:#000000;stroke-width:5;stroke-miterlimit:10;}
</style>
<g id="Layer_1_00000073707665285463063630000005135622502818097548_" class="st0">
	
		<radialGradient id="SVGID_1_" cx="424.25" cy="457.89" r="266.7614" gradientTransform="matrix(1 0 0 1 0 -73.89)" gradientUnits="userSpaceOnUse">
		<stop  offset="0.6575" style="stop-color:#1F92CC"/>
		<stop  offset="1" style="stop-color:#000000"/>
	</radialGradient>
	<polygon class="st1" points="177.3,241.4 177.3,526.6 424.2,669.2 671.2,526.6 671.2,241.4 424.2,98.8 	"/>
	<text transform="matrix(1 0 0 1 1088.4531 325.2261)" class="st2 st3 st4">V</text>
	<text transform="matrix(1 0 0 1 908.7998 473)" class="st2 st3 st4">A</text>
	<text transform="matrix(1 0 0 1 1038 661)" class="st2 st3 st4">N</text>
	
		<radialGradient id="SVGID_00000130619813927092724910000013348960477884418471_" cx="424.25" cy="457.89" r="222.9979" gradientTransform="matrix(1 0 0 1 0 -73.89)" gradientUnits="userSpaceOnUse">
		<stop  offset="0.443" style="stop-color:#1F92CC"/>
		<stop  offset="1" style="stop-color:#000000"/>
	</radialGradient>
	
		<polygon style="display:inline;fill:url(#SVGID_00000130619813927092724910000013348960477884418471_);stroke:#1F92CC;stroke-width:6;stroke-miterlimit:10;" points="
		217.8,264.8 217.8,503.2 424.2,622.4 630.7,503.2 630.7,264.8 424.2,145.6 	"/>
	<g class="st2">
		<g>
			<path class="st6" d="M395.1,466.5h-76.3h-4.5c-4.1,0-7.3-0.8-9.5-2.3s-3.3-3.7-3.3-6.6c0-4.7,2.3-7.7,6.8-9.2
				c3.8-1.2,6-2,6.6-2.3s1.3-0.9,2-2c1.4-1.8,2-4.7,2-8.7V264.6c0-4-0.7-6.9-2-8.7c-0.7-1-1.3-1.7-2-2c-0.6-0.3-2.8-1.1-6.6-2.3
				c-4.6-1.5-6.8-4.6-6.8-9.2c0-2.8,1.1-5,3.3-6.6c2.2-1.5,5.4-2.3,9.5-2.3h4.5h76.3h4.5c4.1,0,7.3,0.8,9.5,2.3s3.3,3.7,3.3,6.6
				c0,4.7-2.3,7.7-6.8,9.2c-3.8,1.2-6,2-6.6,2.3s-1.3,0.9-2,2c-1.4,1.8-2,4.7-2,8.7v170.9c0,4,0.7,6.9,2,8.7c0.7,1,1.3,1.7,2,2
				c0.6,0.3,2.8,1,6.6,2.3c4.6,1.5,6.8,4.5,6.8,9.2c0,2.9-1.1,5-3.3,6.6c-2.2,1.5-5.4,2.3-9.5,2.3L395.1,466.5L395.1,466.5z"/>
		</g>
		<g>
			<path class="st6" d="M463,301.5v200.6c0,4.4,0.9,7.6,2.6,9.6c0.9,1.1,1.8,1.9,2.6,2.1c0.8,0.3,3.4,1,7.9,2.1
				c5.5,1.2,8.2,4.4,8.2,9.4c0,3-1.5,5.3-4.5,7.2c-2.2,1.4-5.8,2-10.8,2h-5.8h-76.3h-4.5c-4.1,0-7.3-0.8-9.5-2.3s-3.3-3.7-3.3-6.6
				c0-4.7,2.3-7.7,6.8-9.2c3.8-1.2,6-2,6.6-2.3s1.3-0.9,2-2c1.4-1.8,2-4.7,2-8.7V332.6c0-4-0.7-6.9-2-8.7c-0.7-1-1.3-1.7-2-2
				c-0.6-0.3-2.8-1-6.6-2.3c-4.6-1.5-6.8-4.5-6.8-9.2c0-2.8,1.1-5,3.3-6.6c2.2-1.5,5.4-2.3,9.5-2.3h4.5H463L463,301.5z M477,425.7
				V406c6.7-3.2,11.5-6.6,14.7-10.2s5.4-8.7,6.9-15c0.9-4.3,2.1-7.3,3.6-8.9s3.6-2.5,6.3-2.5c3.6,0,6.1,1.4,7.5,4.2
				c0.8,1.5,1.2,4.8,1.2,10v64.6c0,5.3-0.6,9-1.8,11s-3.4,3-6.5,3c-2.6,0-4.6-0.8-6.1-2.4s-2.7-4.2-3.6-8c-2-7.8-4.8-13.8-8.3-18
				C487.2,429.8,482.6,427,477,425.7z M478,301.5h69v59.6c0,3.9-0.7,6.7-2,8.4c-1.4,1.7-3.6,2.6-6.7,2.6c-2.3,0-4.1-0.6-5.4-1.8
				c-1.3-1.2-2.4-3.2-3.3-6.1c-1.7-5.6-3.9-10.7-6.7-15.4s-5.8-8.7-9.2-12c-4.7-4.6-9.8-8-15.4-10.4s-12.3-4-20.2-5L478,301.5
				L478,301.5z"/>
		</g>
	</g>
</g>
<g>
	<path class="st7" d="M234.6,398.5l-19.2,37.3c-3,5.8-5.5,9.8-7.6,12s-4.3,3.4-6.7,3.4c-2.3,0-4.2-0.8-5.6-2.5
		c-3-3.4-5.7-7.2-7.9-11.4l-21-39.9c-1.1-2.2-2.2-3.7-3.3-4.7s-2.5-1.7-4.4-2.2c-3.8-1.1-5.6-3.1-5.6-6.1s2.3-5.2,7-6.6
		c4.6-1.4,12-2.1,22-2.1c8.4,0,14.6,0.6,18.5,1.8c4,1.2,6,3.1,6,5.6c0,1.8-0.9,3.5-2.8,5.1c-1.2,1.1-2,1.9-2.3,2.4s-0.5,1.2-0.5,2.1
		c0,1.7,1.1,4.5,3.3,8.4c2.2,3.8,4.2,5.7,6.1,5.7c1.2,0,2.2-0.5,3-1.4s2.2-3.4,4.3-7.3c1.5-2.9,2.3-5,2.3-6.5c0-1.2-0.8-2.6-2.4-4.2
		c-1.7-1.8-2.5-3.4-2.5-5c0-2.4,1.6-4.1,4.7-5.1c3.1-1,8.3-1.6,15.4-1.6c10.1,0,15.1,2.2,15.1,6.5c0,2.5-1.8,4.3-5.4,5.5
		c-2.8,0.9-4.7,1.9-5.7,2.9C238.3,391.8,236.7,394.4,234.6,398.5z"/>
	<path class="st7" d="M291.3,375.3c8.6,0,15.9,2.2,21.8,6.5c3.2,2.3,5.4,5,6.6,8c1.3,3,1.9,7.1,1.9,12.3l-0.1,11
		c0,7.7,0.5,12.6,1.6,14.9c0.5,1.1,1.1,1.8,1.6,2.1c0.5,0.3,1.5,0.6,3.1,0.8c1.6,0.2,2.4,1.3,2.4,3.1c0,2.4-1,4.8-2.9,7.4
		c-1.9,2.6-4.4,4.7-7.4,6.4c-3.7,2.2-7.6,3.3-11.6,3.3c-5.2,0-9.3-1.8-12.3-5.3c-1-1.3-2-1.9-2.9-1.9c-1,0-2.3,0.6-3.9,1.9
		c-4.9,3.6-10.5,5.4-16.8,5.4c-6.5,0-11.7-1.4-15.7-4.1c-2.6-1.8-4.7-4.2-6.2-7.1s-2.3-6-2.3-9.2c0-5.1,2.1-9.7,6.2-13.6
		c6.5-6.2,16.1-9.4,29-9.4c2.9,0,4.7-0.3,5.4-0.9c0.7-0.6,1.1-1.9,1.1-4c0-5.2-0.5-9-1.6-11.4c-1.1-2.3-2.9-3.5-5.3-3.5
		c-1.5,0-2.8,0.4-4,1.3s-2.6,2.5-4.3,4.9c-4.4,6.3-9,9.4-13.8,9.4c-2.4,0-4.4-0.7-5.9-2.1c-1.5-1.4-2.3-3.3-2.3-5.6
		c0-2.4,1-4.7,2.9-7.1c1.9-2.4,4.5-4.4,7.7-6.2C272.3,377.6,281.6,375.3,291.3,375.3z M286.3,418.1c-2.2,0-4.1,0.9-5.7,2.7
		c-1.6,1.8-2.4,3.9-2.4,6.4c0,2.4,0.6,4.3,1.7,5.7c1.1,1.5,2.6,2.2,4.5,2.2c3.9,0,5.9-3.3,5.9-10c0-2.7-0.3-4.5-0.9-5.5
		C289,418.7,287.9,418.2,286.3,418.1z"/>
	<path class="st7" d="M424.8,402.7l1,26.1c0.1,2,0.4,3.4,0.9,4.4c0.5,0.9,2,2.7,4.6,5.4c0.7,0.8,1.1,1.9,1.1,3.3
		c0,3.3-2,5.5-5.8,6.8c-3.9,1.3-10.9,1.9-20.9,1.9c-6.8,0-11.6-0.6-14.4-1.8c-2.9-1.2-4.4-3.2-4.4-6c0-1,0.1-1.7,0.4-2.2
		s1.3-1.6,3-3.4c2-2.1,3-9,3-20.7c0-6.8-0.8-11.8-2.4-15.1c-1.3-2.6-3.7-3.9-7.1-3.9c-3.3,0-5.6,1.1-6.8,3.2s-1.9,6-1.9,11.6V427
		c0,2.9,0.2,4.9,0.6,6c0.4,1.1,1.6,3.2,3.7,6.3c0.5,0.9,0.8,1.9,0.8,3c0,2.9-2,5.1-6.1,6.4c-4,1.4-10.4,2.1-19,2.1
		c-13.7,0-20.6-2.8-20.6-8.5c0-1.2,0.2-2.1,0.6-2.7c0.4-0.6,1.4-1.5,3-2.6c1.3-0.9,2.1-2,2.4-3.2s0.7-4.2,1-8.9
		c0.3-5.6,0.5-11.5,0.5-17.7c0-3.4-0.3-5.6-0.8-6.7s-2-2.4-4.5-3.9c-2.1-1.3-3.2-3-3.2-4.9c0-2,0.9-3.6,2.6-4.8
		c1.7-1.3,5.3-2.9,10.7-4.8c4.7-1.7,9.3-3.1,13.7-4.3c4.4-1.2,7.4-1.7,9-1.7c1.5,0,2.7,0.5,3.7,1.6s1.5,2.4,1.5,3.9
		c0,0.1,0,0.8-0.1,1.9c0,0.4-0.1,0.7-0.1,1c0,2.4,1,3.6,3,3.6c1.2,0,2.4-0.9,3.8-2.8c4.2-6.1,10.4-9.2,18.5-9.2
		c6.2,0,11.6,1.6,16,4.9c3.1,2.3,5.3,5,6.5,8.2C423.7,392,424.5,396.6,424.8,402.7z"/>
</g>
<g>
	<path class="st6" d="M144.3,448.8H99.6H97c-2.4,0-4.3-0.5-5.6-1.3c-1.3-0.9-2-2.2-2-3.8c0-2.7,1.3-4.5,4-5.4
		c2.2-0.7,3.5-1.2,3.9-1.3c0.4-0.2,0.7-0.6,1.2-1.1c0.8-1.1,1.2-2.8,1.2-5.1V330.5c0-2.3-0.4-4-1.2-5.1c-0.4-0.6-0.8-1-1.2-1.1
		c-0.4-0.2-1.7-0.6-3.9-1.3c-2.7-0.9-4-2.7-4-5.4c0-1.7,0.7-3,2-3.8c1.3-0.9,3.2-1.3,5.6-1.3h2.6h44.7h2.6c2.4,0,4.3,0.5,5.6,1.3
		c1.3,0.9,2,2.2,2,3.8c0,2.7-1.3,4.5-4,5.4c-2.2,0.7-3.5,1.2-3.9,1.3c-0.4,0.2-0.7,0.6-1.2,1.1c-0.8,1.1-1.2,2.8-1.2,5.1v100.1
		c0,2.3,0.4,4,1.2,5.1c0.4,0.6,0.8,1,1.2,1.1c0.4,0.2,1.7,0.6,3.9,1.3c2.7,0.9,4,2.7,4,5.4c0,1.7-0.7,3-2,3.8
		c-1.3,0.9-3.2,1.3-5.6,1.3h-2.6V448.8z"/>
</g>
<g>
	<path class="st6" d="M536.3,312.3v117.5c0,2.6,0.5,4.5,1.5,5.6c0.5,0.7,1,1.1,1.5,1.2c0.5,0.2,2,0.6,4.6,1.2
		c3.2,0.7,4.8,2.6,4.8,5.5c0,1.7-0.9,3.1-2.6,4.2c-1.3,0.8-3.4,1.2-6.3,1.2h-3.4h-44.7h-2.6c-2.4,0-4.3-0.5-5.6-1.3
		c-1.3-0.9-2-2.2-2-3.8c0-2.7,1.3-4.5,4-5.4c2.2-0.7,3.5-1.2,3.9-1.3c0.4-0.2,0.7-0.6,1.2-1.1c0.8-1.1,1.2-2.8,1.2-5.1V330.5
		c0-2.3-0.4-4-1.2-5.1c-0.4-0.6-0.8-1-1.2-1.1c-0.4-0.2-1.7-0.6-3.9-1.3c-2.7-0.9-4-2.7-4-5.4c0-1.7,0.7-3,2-3.8
		c1.3-0.9,3.2-1.3,5.6-1.3h2.6L536.3,312.3L536.3,312.3z M544.5,385.1v-11.5c3.9-1.9,6.8-3.9,8.6-6s3.2-5.1,4-8.8
		c0.5-2.5,1.2-4.3,2.1-5.2c0.9-1,2.1-1.4,3.7-1.4c2.1,0,3.6,0.8,4.4,2.5c0.5,0.9,0.7,2.8,0.7,5.9v37.7c0,3.1-0.3,5.3-1,6.5
		s-2,1.8-3.8,1.8c-1.5,0-2.7-0.5-3.6-1.4c-0.9-0.9-1.6-2.5-2.1-4.7c-1.2-4.6-2.8-8.1-4.9-10.5C550.5,387.5,547.8,385.9,544.5,385.1z
		 M545.1,312.3h40.4v35c0,2.3-0.4,3.9-1.2,4.9s-2.1,1.5-3.9,1.5c-1.3,0-2.4-0.4-3.2-1c-0.8-0.7-1.4-1.9-2-3.6c-1-3.3-2.3-6.3-3.9-9
		s-3.4-5.1-5.4-7c-2.7-2.7-5.8-4.7-9-6.1c-3.3-1.4-7.2-2.4-11.8-2.9L545.1,312.3L545.1,312.3z"/>
</g>
<g>
	<path class="st7" d="M650,417.9h-33.6c-1.5,0-2.2,0.6-2.2,1.9c0,3.1,1.7,6,5,8.8c3.4,2.7,7,4.1,10.8,4.1c2.3,0,4.8-0.4,7.6-1.3
		s5.1-2,6.9-3.3c1.6-1.1,2.9-1.7,3.9-1.7c1.2,0,2.5,0.8,3.6,2.3c1.2,1.5,1.8,3.1,1.8,4.7c0,3.4-2.1,6.8-6.4,9.9
		c-7.6,5.7-16.3,8.5-26.3,8.5s-18.4-2.9-25.2-8.7c-3.3-2.9-6-6.3-8.2-10.4c-2.8-5.4-4.2-11.1-4.2-17c0-8,2.4-15.2,7.3-21.6
		c4.2-5.5,9.5-9.7,16-12.4c4.9-2.1,10.1-3.1,15.8-3.1c9.1,0,16.8,2.6,23.1,7.7c3.2,2.6,5.8,5.6,7.7,9.2c2.2,4,3.4,7.9,3.4,11.7
		c0,3.1-0.6,5.6-1.9,7.6C653.7,416.9,652,417.9,650,417.9z M618.2,404.5h7.2c3.1,0,4.6-1.4,4.6-4.2c0-2.6-0.7-4.7-2.2-6.3
		c-1.5-1.6-3.4-2.4-5.8-2.4c-2.7,0-4.8,1.1-6.3,3.1c-1.4,2-2.1,3.9-2.1,5.9c0,1.4,0.3,2.4,1,3C615.3,404.2,616.5,404.5,618.2,404.5z
		"/>
	<path class="st7" d="M695,379.1c2.5,0,4.1,0.4,4.6,1.1s1,3,1.5,6.9c0.2,2.1,1,3.1,2.2,3.1c1,0,1.9-0.7,2.7-2.1
		c3.8-6,8.8-8.9,15-8.9c4.3,0,7.9,1.4,10.7,4.2c1.3,1.4,2.4,3.2,3.3,5.3c0.9,2.2,1.3,4.3,1.3,6.3c0,2.2-0.5,4.5-1.6,6.9
		s-2.4,4.3-4.1,5.8c-3.1,2.9-6.8,4.4-11.2,4.4c-2.4,0-4.5-0.4-6.1-1.3s-3.8-2.6-6.5-5.2c-1-1-1.9-1.5-2.8-1.5
		c-1.3,0-2.2,0.8-2.6,2.3c-0.4,1.5-0.6,4.7-0.6,9.5c0,7.2,0.3,12.1,0.8,14.7c0.3,1.4,0.8,2.4,1.4,3c0.6,0.5,1.9,1.1,3.8,1.7
		c4.3,1.3,6.4,3.5,6.4,6.7c0,2-0.7,3.7-2.1,5.1c-1.4,1.5-3.2,2.4-5.5,2.9c-4.6,1-11.3,1.4-20.2,1.4c-8.4,0-14.9-0.7-19.3-2.2
		c-3.9-1.3-5.9-3.6-5.9-6.9c0-2.5,1.4-4.7,4.3-6.7c1.4-0.9,2.3-1.7,2.9-2.5c0.5-0.7,0.9-1.8,1.1-3c0.8-4.3,1.1-12.4,1.1-24.1
		c0-2.1-0.2-3.7-0.7-4.6s-1.4-1.7-2.9-2.3c-3.4-1.3-5.1-3.3-5.1-5.8c0-2.3,1.2-4.3,3.5-5.9s6.2-3.3,11.7-4.9
		C683.6,380.3,689.8,379.2,695,379.1z"/>
	<path class="st7" d="M827.7,405.1l1,25.2c0.1,1.9,0.4,3.3,0.9,4.2c0.5,0.9,2,2.6,4.4,5.2c0.7,0.8,1.1,1.8,1.1,3.2
		c0,3.1-1.9,5.3-5.7,6.6c-3.8,1.2-10.5,1.9-20.2,1.9c-6.6,0-11.2-0.6-14-1.7c-2.8-1.2-4.2-3.1-4.2-5.8c0-1,0.1-1.7,0.4-2.1
		c0.3-0.5,1.2-1.6,2.9-3.3c1.9-2,2.9-8.7,2.9-20c0-6.6-0.8-11.5-2.3-14.6c-1.2-2.5-3.5-3.8-6.9-3.8c-3.2,0-5.4,1-6.6,3.1
		c-1.2,2.1-1.8,5.8-1.8,11.2v14.2c0,2.8,0.2,4.7,0.5,5.8c0.4,1.1,1.5,3.1,3.5,6.1c0.5,0.9,0.8,1.8,0.8,2.9c0,2.8-2,4.9-5.9,6.2
		c-3.9,1.3-10,2-18.3,2c-13.3,0-19.9-2.7-19.9-8.2c0-1.1,0.2-2,0.6-2.6c0.4-0.6,1.4-1.4,2.9-2.5c1.2-0.9,2-1.9,2.4-3.1
		c0.3-1.2,0.6-4,0.9-8.6c0.3-5.4,0.5-11.1,0.5-17.1c0-3.3-0.2-5.5-0.8-6.5c-0.5-1-1.9-2.3-4.3-3.8c-2.1-1.3-3.1-2.9-3.1-4.7
		c0-1.9,0.8-3.5,2.5-4.7s5.1-2.8,10.3-4.6c4.6-1.6,9-3,13.2-4.1s7.2-1.7,8.7-1.7c1.4,0,2.6,0.5,3.6,1.6s1.5,2.3,1.5,3.7
		c0,0.1,0,0.7-0.1,1.8c0,0.4-0.1,0.7-0.1,1c0,2.3,1,3.4,2.9,3.4c1.1,0,2.4-0.9,3.6-2.7c4.1-5.9,10.1-8.9,17.9-8.9
		c6,0,11.2,1.6,15.5,4.7c3,2.2,5.1,4.9,6.3,7.9C826.7,394.8,827.4,399.2,827.7,405.1z"/>
	<path class="st7" d="M880.1,378.6c8.3,0,15.3,2.1,21.1,6.3c3.1,2.2,5.2,4.8,6.4,7.7c1.2,2.9,1.8,6.9,1.8,11.9l-0.1,10.7
		c0,7.4,0.5,12.2,1.6,14.4c0.5,1.1,1,1.7,1.5,2s1.5,0.5,3,0.8c1.5,0.2,2.3,1.2,2.3,3c0,2.3-0.9,4.7-2.8,7.2
		c-1.8,2.5-4.2,4.6-7.1,6.2c-3.6,2.1-7.3,3.1-11.2,3.1c-5,0-9-1.7-11.9-5.2c-1-1.2-1.9-1.9-2.8-1.9c-1,0-2.2,0.6-3.8,1.8
		c-4.8,3.5-10.2,5.2-16.2,5.2c-6.3,0-11.3-1.3-15.2-4c-2.5-1.8-4.5-4.1-6-6.9s-2.2-5.8-2.2-8.9c0-5,2-9.3,6-13.2
		c6.3-6,15.6-9,28.1-9.1c2.8,0,4.5-0.3,5.2-0.8s1.1-1.8,1.1-3.8c0-5.1-0.5-8.7-1.6-11s-2.8-3.4-5.2-3.4c-1.4,0-2.7,0.4-3.8,1.3
		s-2.5,2.4-4.2,4.7c-4.2,6.1-8.7,9.1-13.3,9.1c-2.3,0-4.2-0.7-5.7-2.1s-2.2-3.2-2.2-5.4c0-2.3,0.9-4.6,2.8-6.9
		c1.8-2.3,4.3-4.3,7.5-6C861.7,380.9,870.7,378.6,880.1,378.6z M875.3,420c-2.1,0-3.9,0.9-5.5,2.6s-2.3,3.8-2.3,6.2
		c0,2.3,0.5,4.1,1.6,5.5s2.6,2.1,4.4,2.1c3.8,0,5.7-3.2,5.7-9.7c0-2.6-0.3-4.4-0.8-5.3C877.9,420.6,876.9,420.1,875.3,420z"/>
	<path class="st7" d="M1009.2,405.1l1,25.2c0.1,1.9,0.4,3.3,0.9,4.2c0.5,0.9,2,2.6,4.4,5.2c0.7,0.8,1.1,1.8,1.1,3.2
		c0,3.1-1.9,5.3-5.7,6.6c-3.8,1.2-10.5,1.9-20.2,1.9c-6.6,0-11.2-0.6-14-1.7c-2.8-1.2-4.2-3.1-4.2-5.8c0-1,0.1-1.7,0.4-2.1
		c0.3-0.5,1.2-1.6,2.9-3.3c1.9-2,2.9-8.7,2.9-20c0-6.6-0.8-11.5-2.3-14.6c-1.2-2.5-3.5-3.8-6.9-3.8c-3.2,0-5.4,1-6.6,3.1
		c-1.2,2.1-1.8,5.8-1.8,11.2v14.2c0,2.8,0.2,4.7,0.5,5.8c0.4,1.1,1.5,3.1,3.5,6.1c0.5,0.9,0.8,1.8,0.8,2.9c0,2.8-2,4.9-5.9,6.2
		c-3.9,1.3-10,2-18.3,2c-13.3,0-19.9-2.7-19.9-8.2c0-1.1,0.2-2,0.6-2.6c0.4-0.6,1.4-1.4,2.9-2.5c1.2-0.9,2-1.9,2.4-3.1
		c0.3-1.2,0.6-4,0.9-8.6c0.3-5.4,0.5-11.1,0.5-17.1c0-3.3-0.2-5.5-0.8-6.5c-0.5-1-1.9-2.3-4.3-3.8c-2.1-1.3-3.1-2.9-3.1-4.7
		c0-1.9,0.8-3.5,2.5-4.7s5.1-2.8,10.3-4.6c4.6-1.6,9-3,13.2-4.1s7.2-1.7,8.7-1.7c1.4,0,2.6,0.5,3.6,1.6s1.5,2.3,1.5,3.7
		c0,0.1,0,0.7-0.1,1.8c0,0.4-0.1,0.7-0.1,1c0,2.3,1,3.4,2.9,3.4c1.1,0,2.4-0.9,3.6-2.7c4.1-5.9,10.1-8.9,17.9-8.9
		c6,0,11.2,1.6,15.5,4.7c3,2.2,5.1,4.9,6.3,7.9C1008.1,394.8,1008.9,399.2,1009.2,405.1z"/>
	<path class="st7" d="M1104.3,358v65.3c0,3.7,0.2,6.1,0.5,7.2s1.2,2.1,2.6,3.1c1.7,1.2,2.9,2.2,3.5,3.1s0.9,2,0.9,3.3
		c0,3.8-3.8,6.7-11.5,8.7c-6.9,1.8-13.8,2.6-20.8,2.6c-1.5,0-2.5-0.2-3-0.7s-0.8-1.5-0.9-3.3c-0.2-2.4-1.1-3.6-2.6-3.6
		c-0.8,0-2.1,0.7-3.8,2.1c-4.9,4-10.3,5.9-16.2,5.9c-7.4,0-14.1-2.7-20-8.2c-3.5-3.3-6.3-7.1-8.4-11.4c-2.9-5.6-4.3-11.2-4.3-17
		c0-6.7,1.9-13.2,5.6-19.5c3.4-5.8,8.1-10.2,14-13.3c5-2.6,9.9-3.9,14.7-3.9c5.5,0,10.5,1.2,14.9,3.7c0.7,0.4,1.3,0.6,1.7,0.6
		c1.5,0,2.3-2.1,2.3-6.2c0-1.8-0.4-3.1-1.3-4c-0.8-0.9-2.3-1.7-4.5-2.4c-3-1-4.5-2.6-4.5-5c0-3.5,3.5-6.2,10.4-8.2
		c12.2-3.4,20.4-5.1,24.5-5.1C1102.3,352.1,1104.3,354.1,1104.3,358z M1065.5,394c-3.1,0-5.6,1.6-7.4,4.9
		c-2.4,4.4-3.6,10.2-3.6,17.3c0,6.5,1.2,11.4,3.5,14.7c1.7,2.4,3.9,3.6,6.8,3.6c3.1,0,5.4-1.8,6.8-5.4s2.1-9.4,2.1-17.4
		c0-7.3-0.8-12.2-2.5-14.7C1069.8,395.1,1068,394.1,1065.5,394z"/>
	<path class="st7" d="M1182.1,417.9h-33.6c-1.5,0-2.2,0.6-2.2,1.9c0,3.1,1.7,6,5,8.8c3.4,2.7,7,4.1,10.8,4.1c2.3,0,4.8-0.4,7.6-1.3
		c2.8-0.9,5.1-2,6.9-3.3c1.6-1.1,2.9-1.7,3.9-1.7c1.2,0,2.5,0.8,3.6,2.3c1.2,1.5,1.8,3.1,1.8,4.7c0,3.4-2.1,6.8-6.4,9.9
		c-7.6,5.7-16.3,8.5-26.3,8.5s-18.4-2.9-25.2-8.7c-3.3-2.9-6-6.3-8.2-10.4c-2.8-5.4-4.2-11.1-4.2-17c0-8,2.4-15.2,7.3-21.6
		c4.2-5.5,9.5-9.7,16-12.4c4.9-2.1,10.1-3.1,15.8-3.1c9.1,0,16.8,2.6,23.1,7.7c3.2,2.6,5.8,5.6,7.7,9.2c2.2,4,3.4,7.9,3.4,11.7
		c0,3.1-0.6,5.6-1.9,7.6C1185.8,416.9,1184.2,417.9,1182.1,417.9z M1150.4,404.5h7.2c3.1,0,4.6-1.4,4.6-4.2c0-2.6-0.7-4.7-2.2-6.3
		c-1.5-1.6-3.4-2.4-5.8-2.4c-2.7,0-4.8,1.1-6.3,3.1c-1.4,2-2.1,3.9-2.1,5.9c0,1.4,0.3,2.4,1,3
		C1147.4,404.2,1148.6,404.5,1150.4,404.5z"/>
	<path class="st7" d="M1230.3,380.5h19c4.4,0,7.2,0.1,8.4,0.2c1.2,0.2,2.1,0.6,2.8,1.3c0.8,0.8,1.2,1.9,1.2,3.2c0,1.8-0.8,4-2.4,6.8
		l-19,33.7c-1.6,2.8-2.4,4.8-2.4,5.9c0,2.2,1.7,3.4,5.1,3.4c2.4,0,4.4-0.5,5.8-1.5c1.5-1,2.8-2.7,4.1-5.1c1.1-2.2,2-3.7,2.7-4.4
		c0.7-0.7,1.6-1.1,2.6-1.1c2.1,0,3.8,0.8,5.2,2.5c1.3,1.7,2,3.8,2,6.4c0,3-0.8,6.1-2.4,9.5s-3.7,6.2-6.2,8.4
		c-1.9,1.7-3.6,2.5-5.3,2.5c-0.7,0-1.6-0.2-2.8-0.7c-2.3-1-5.1-1.5-8.3-1.6h-37.5c-6.3,0-9.5-1.8-9.5-5.5c0-0.8,0.2-1.7,0.7-2.6
		s2.1-3.7,5-8.5l16.4-26.3c3.1-4.9,4.6-7.9,4.6-9.2c0-1.9-2-2.9-6-2.9c-2.1,0-3.7,0.4-4.9,1.2c-1.2,0.8-2.5,2.3-3.9,4.4
		c-1.6,2.6-2.8,4.2-3.6,5c-0.8,0.7-1.9,1.1-3.3,1.1c-1.9,0-3.4-0.7-4.6-2.2s-1.8-3.3-1.8-5.5c0-4.3,1.5-8.9,4.4-13.9
		c2.8-4.7,5.4-7.1,7.9-7.1c0.6,0,1.3,0.2,2.3,0.5c2.6,0.9,4.7,1.4,6.3,1.6C1214.4,380.1,1220.2,380.3,1230.3,380.5z"/>
</g>
</svg>
