<?xml version="1.0" encoding="utf-8"?>
<!-- Generator: Adobe Illustrator 28.0.0, SVG Export Plug-In . SVG Version: 6.00 Build 0)  -->
<svg version="1.1" id="Layer_1" xmlns="http://www.w3.org/2000/svg" xmlns:xlink="http://www.w3.org/1999/xlink" x="0px" y="0px"
	 viewBox="0 0 1366 768" style="enable-background:new 0 0 1366 768;" xml:space="preserve">
<style type="text/css">
	.st0{display:none;}
	.st1{display:inline;fill:url(#SVGID_1_);stroke:#000000;stroke-width:6;stroke-miterlimit:10;}
	.st2{display:inline;}
	.st3{font-family:'ArialMT';}
	.st4{font-size:350px;}
	
		.st5{display:inline;fill:url(#SVGID_00000060737660663072272850000017761034733252629418_);stroke:#1F92CC;stroke-width:6;stroke-miterlimit:10;}
	.st6{fill:#FFFFFF;stroke:#000000;stroke-width:6;stroke-miterlimit:10;}
</style>
<g id="Layer_1_00000073707665285463063630000005135622502818097548_" class="st0">
	
		<radialGradient id="SVGID_1_" cx="424.25" cy="457.89" r="266.7614" gradientTransform="matrix(1 0 0 1 0 -73.89)" gradientUnits="userSpaceOnUse">
		<stop  offset="0.6575" style="stop-color:#1F92CC"/>
		<stop  offset="1" style="stop-color:#000000"/>
	</radialGradient>
	<polygon class="st1" points="177.3,241.4 177.3,526.6 424.2,669.2 671.2,526.6 671.2,241.4 424.2,98.8 	"/>
	<text transform="matrix(1 0 0 1 1088.4531 325.2261)" class="st2 st3 st4">V</text>
	<text transform="matrix(1 0 0 1 908.7998 473)" class="st2 st3 st4">A</text>
	<text transform="matrix(1 0 0 1 1038 661)" class="st2 st3 st4">N</text>
	
		<radialGradient id="SVGID_00000073721394524441483120000001790513084782628791_" cx="424.25" cy="457.89" r="222.9979" gradientTransform="matrix(1 0 0 1 0 -73.89)" gradientUnits="userSpaceOnUse">
		<stop  offset="0.443" style="stop-color:#1F92CC"/>
		<stop  offset="1" style="stop-color:#000000"/>
	</radialGradient>
	
		<polygon style="display:inline;fill:url(#SVGID_00000073721394524441483120000001790513084782628791_);stroke:#1F92CC;stroke-width:6;stroke-miterlimit:10;" points="
		217.8,264.8 217.8,503.2 424.2,622.4 630.7,503.2 630.7,264.8 424.2,145.6 	"/>
	<g class="st2">
		<g>
			<path class="st6" d="M395.1,466.5h-76.3h-4.5c-4.1,0-7.3-0.8-9.5-2.3s-3.3-3.7-3.3-6.6c0-4.7,2.3-7.7,6.8-9.2
				c3.8-1.2,6-2,6.6-2.3s1.3-0.9,2-2c1.4-1.8,2-4.7,2-8.7V264.6c0-4-0.7-6.9-2-8.7c-0.7-1-1.3-1.7-2-2c-0.6-0.3-2.8-1.1-6.6-2.3
				c-4.6-1.5-6.8-4.6-6.8-9.2c0-2.8,1.1-5,3.3-6.6c2.2-1.5,5.4-2.3,9.5-2.3h4.5h76.3h4.5c4.1,0,7.3,0.8,9.5,2.3s3.3,3.7,3.3,6.6
				c0,4.7-2.3,7.7-6.8,9.2c-3.8,1.2-6,2-6.6,2.3s-1.3,0.9-2,2c-1.4,1.8-2,4.7-2,8.7v170.9c0,4,0.7,6.9,2,8.7c0.7,1,1.3,1.7,2,2
				c0.6,0.3,2.8,1,6.6,2.3c4.6,1.5,6.8,4.5,6.8,9.2c0,2.9-1.1,5-3.3,6.6c-2.2,1.5-5.4,2.3-9.5,2.3L395.1,466.5L395.1,466.5z"/>
		</g>
		<g>
			<path class="st6" d="M463,301.5v200.6c0,4.4,0.9,7.6,2.6,9.6c0.9,1.1,1.8,1.9,2.6,2.1c0.8,0.3,3.4,1,7.9,2.1
				c5.5,1.2,8.2,4.4,8.2,9.4c0,3-1.5,5.3-4.5,7.2c-2.2,1.4-5.8,2-10.8,2h-5.8h-76.3h-4.5c-4.1,0-7.3-0.8-9.5-2.3s-3.3-3.7-3.3-6.6
				c0-4.7,2.3-7.7,6.8-9.2c3.8-1.2,6-2,6.6-2.3s1.3-0.9,2-2c1.4-1.8,2-4.7,2-8.7V332.6c0-4-0.7-6.9-2-8.7c-0.7-1-1.3-1.7-2-2
				c-0.6-0.3-2.8-1-6.6-2.3c-4.6-1.5-6.8-4.5-6.8-9.2c0-2.8,1.1-5,3.3-6.6c2.2-1.5,5.4-2.3,9.5-2.3h4.5H463L463,301.5z M477,425.7
				V406c6.7-3.2,11.5-6.6,14.7-10.2s5.4-8.7,6.9-15c0.9-4.3,2.1-7.3,3.6-8.9s3.6-2.5,6.3-2.5c3.6,0,6.1,1.4,7.5,4.2
				c0.8,1.5,1.2,4.8,1.2,10v64.6c0,5.3-0.6,9-1.8,11s-3.4,3-6.5,3c-2.6,0-4.6-0.8-6.1-2.4s-2.7-4.2-3.6-8c-2-7.8-4.8-13.8-8.3-18
				C487.2,429.8,482.6,427,477,425.7z M478,301.5h69v59.6c0,3.9-0.7,6.7-2,8.4c-1.4,1.7-3.6,2.6-6.7,2.6c-2.3,0-4.1-0.6-5.4-1.8
				c-1.3-1.2-2.4-3.2-3.3-6.1c-1.7-5.6-3.9-10.7-6.7-15.4s-5.8-8.7-9.2-12c-4.7-4.6-9.8-8-15.4-10.4s-12.3-4-20.2-5L478,301.5
				L478,301.5z"/>
		</g>
	</g>
</g>
<g>
	<path class="st6" d="M446.8,447.5h-44.7h-2.6c-2.4,0-4.3-0.5-5.6-1.3c-1.3-0.9-2-2.2-2-3.8c0-2.7,1.3-4.5,4-5.4
		c2.2-0.7,3.5-1.2,3.9-1.3c0.4-0.2,0.7-0.6,1.2-1.1c0.8-1.1,1.2-2.8,1.2-5.1V329.2c0-2.3-0.4-4-1.2-5.1c-0.4-0.6-0.8-1-1.2-1.1
		c-0.4-0.2-1.7-0.6-3.9-1.3c-2.7-0.9-4-2.7-4-5.4c0-1.7,0.7-3,2-3.8c1.3-0.9,3.2-1.3,5.6-1.3h2.6h44.7h2.6c2.4,0,4.3,0.5,5.6,1.3
		c1.3,0.9,2,2.2,2,3.8c0,2.7-1.3,4.5-4,5.4c-2.2,0.7-3.5,1.2-3.9,1.3c-0.4,0.2-0.7,0.6-1.2,1.1c-0.8,1.1-1.2,2.8-1.2,5.1v100.1
		c0,2.3,0.4,4,1.2,5.1c0.4,0.6,0.8,1,1.2,1.1c0.4,0.2,1.7,0.6,3.9,1.3c2.7,0.9,4,2.7,4,5.4c0,1.7-0.7,3-2,3.8
		c-1.3,0.9-3.2,1.3-5.6,1.3h-2.6V447.5z"/>
</g>
<g>
	<path class="st6" d="M536.3,312.3v117.5c0,2.6,0.5,4.5,1.5,5.6c0.5,0.7,1,1.1,1.5,1.2c0.5,0.2,2,0.6,4.6,1.2
		c3.2,0.7,4.8,2.6,4.8,5.5c0,1.7-0.9,3.1-2.6,4.2c-1.3,0.8-3.4,1.2-6.3,1.2h-3.4h-44.7h-2.6c-2.4,0-4.3-0.5-5.6-1.3
		c-1.3-0.9-2-2.2-2-3.8c0-2.7,1.3-4.5,4-5.4c2.2-0.7,3.5-1.2,3.9-1.3c0.4-0.2,0.7-0.6,1.2-1.1c0.8-1.1,1.2-2.8,1.2-5.1V330.5
		c0-2.3-0.4-4-1.2-5.1c-0.4-0.6-0.8-1-1.2-1.1c-0.4-0.2-1.7-0.6-3.9-1.3c-2.7-0.9-4-2.7-4-5.4c0-1.7,0.7-3,2-3.8
		c1.3-0.9,3.2-1.3,5.6-1.3h2.6L536.3,312.3L536.3,312.3z M544.5,385.1v-11.5c3.9-1.9,6.8-3.9,8.6-6s3.2-5.1,4-8.8
		c0.5-2.5,1.2-4.3,2.1-5.2c0.9-1,2.1-1.4,3.7-1.4c2.1,0,3.6,0.8,4.4,2.5c0.5,0.9,0.7,2.8,0.7,5.9v37.7c0,3.1-0.3,5.3-1,6.5
		s-2,1.8-3.8,1.8c-1.5,0-2.7-0.5-3.6-1.4c-0.9-0.9-1.6-2.5-2.1-4.7c-1.2-4.6-2.8-8.1-4.9-10.5C550.5,387.5,547.8,385.9,544.5,385.1z
		 M545.1,312.3h40.4v35c0,2.3-0.4,3.9-1.2,4.9s-2.1,1.5-3.9,1.5c-1.3,0-2.4-0.4-3.2-1c-0.8-0.7-1.4-1.9-2-3.6c-1-3.3-2.3-6.3-3.9-9
		s-3.4-5.1-5.4-7c-2.7-2.7-5.8-4.7-9-6.1c-3.3-1.4-7.2-2.4-11.8-2.9L545.1,312.3L545.1,312.3z"/>
</g>
</svg>
